# xmcd
#
# Track frame offsets: 
#        150
#        8819
#        21127
#        34909
#        51799
#        70620
#        91383
#        108791
#        120882
#        130017
#        143392
#        156221
#        166142
#        177075
#        204909
#        222586
#        232411
#        238483
#        249723
#        262529
#        275120
#        286037
#        300011
#        310932
#        325327
#        336806
#
# Disc length: 4665 seconds
#
# Revision: 1
# Processed by: cddbd v1.5.2PL0 Copyright (c) Steve Scherf et al.
# Submitted via: ExactAudioCopy v0.99pb5
#
DISCID=5f12371a
DTITLE=Леонид Утесов - Великие исполнители  ХХ века (диск1)
DYEAR=2001
DGENRE=Jazz
TTITLE0=Бублички
TTITLE1=С одесского кичмана
TTITLE2=Гоп со смыком
TTITLE3=Лимончики
TTITLE4=У самовара
TTITLE5=У окошка
TTITLE6=Джаз-болельщик
TTITLE7=Папочка и мышки
TTITLE8=Садко
TTITLE9=Танго "Сильва"
TTITLE10=Фокс "Сильва"
TTITLE11=Ах, Одесса моя
TTITLE12=Одесский порт
TTITLE13=Одессит Мишка
TTITLE14=Марш весёлых ребят
TTITLE15=Сердце
TTITLE16=Джаз гол (Марш весёлых ребят)
TTITLE17=Маркиза
TTITLE18=Родная
TTITLE19=Тайна
TTITLE20=Му-му
TTITLE21=Пара гнедых
TTITLE22=Портрет
TTITLE23=Прощальная комсомольская
TTITLE24=Будьте здоровы
TTITLE25=Дорогие москвичи
EXTD=YEAR: 201
EXTT0=
EXTT1=
EXTT2=
EXTT3=
EXTT4=
EXTT5=
EXTT6=
EXTT7=
EXTT8=
EXTT9=
EXTT10=
EXTT11=
EXTT12=
EXTT13=
EXTT14=
EXTT15=
EXTT16=
EXTT17=
EXTT18=
EXTT19=
EXTT20=
EXTT21=
EXTT22=
EXTT23=
EXTT24=
EXTT25=
PLAYORDER=
